<svg xmlns="http://www.w3.org/2000/svg" xml:space="preserve" width="2000" height="560" data-id="lg_0I4r7KrQgMoRj94nfr" data-version="1" viewBox="0 0 2000 560"><g data-padding="20"><g transform="translate(10 10.39)scale(.9629)"><g transform="matrix(8.98 0 0 7 269.55 280)"><linearGradient id="a" x1="0" x2="1" y1="0" y2="0" gradientUnits="objectBoundingBox"><stop offset="0%" stop-color="#ffa62e"/><stop offset="100%" stop-color="#f71b3d"/></linearGradient><path fill="url(#a)" d="M164.477 90h-60V40c0-16.569 13.43-30 30-30s30 13.431 30 30Z" transform="translate(-50 -50)"/></g><rect width="192.596" height="285.89" x="915.169" y="-142.945" fill="none" rx="0" ry="0" transform="matrix(.75 0 0 .75 269.23 443.76)"/><path fill="#fff" d="M1000.95 387.29v47.46l48.58-45.98q7.24-6.78 12.26-11.7 3.34-3.35 6.68-3.35 1.68 0 3.35.84l9.84 4.83q1.58.93 1.58 2.23 0 .56-.28 1.21l-4.83 13.56-6.41-2.7q-3.62-1.48-6.68-1.48-4.83 0-8.46 3.62l-37.43 36.5 69.85 64.46q1.95 1.96 4.13 2.93 2.19.98 2.19 2.37 0 1.95-1.86 1.95h-31.49q-1.95 0-1.95-1.95 0-.74 1.02-1.67 1.68-1.4 1.86-2.51v-.09q0-1.21-3.34-4.09l-58.61-54.06v50.81q0 6.04 4.64 7.66 4.65 1.63 4.65 3.95 0 1.95-1.86 1.95h-31.49q-1.95 0-1.95-1.95 0-2.32 4.64-3.95 4.65-1.62 4.65-7.66V387.29q0-5.95-4.65-7.62-4.64-1.67-4.64-4.09 0-1.95 1.95-1.95h31.49q1.86 0 1.86 1.95 0 2.42-4.65 4.09-4.64 1.67-4.64 7.62"/><path fill="none" stroke="#fff" stroke-width="5.625" d="M1028.14 30.03a151.78 151.78 0 1 0 0 303.56 151.78 151.78 0 1 0 0-303.56Z" paint-order="stroke"/><rect width="184.299" height="294.93" x="919.318" y="-147.465" fill="none" rx="0" ry="0" transform="matrix(.75 0 0 .75 269.18 181.45)"/><path fill="#fff" d="M1091.43 243.69h-17.66l-64.37-70.45 59.66-66.91h16.88l-64.57 61.42Zm-89.09 0h-13.35V106.33h13.35Z"/></g><path fill="transparent" stroke="transparent" d="M730.5 0h539v560h-539z"/></g></svg>